<mxfile host="app.diagrams.net" agent="Mozilla/5.0 (Windows NT 10.0; Win64; x64) AppleWebKit/537.36 (KHTML, like Gecko) Chrome/130.0.0.0 Safari/537.36" version="24.8.6">
  <diagram name="Strona-1" id="7fSPnPoYhFOue59JwDhX">
    <mxGraphModel dx="2587" dy="2092" grid="1" gridSize="10" guides="1" tooltips="1" connect="1" arrows="1" fold="1" page="1" pageScale="1" pageWidth="827" pageHeight="1169" background="#000000" math="0" shadow="0">
      <root>
        <mxCell id="0" />
        <mxCell id="1" parent="0" />
        <mxCell id="1AaIwLursv8qgeVIKVuF-1" value="Użytkownik wchodzi na strone początkową&amp;nbsp;" style="ellipse;whiteSpace=wrap;html=1;aspect=fixed;fontStyle=1;strokeWidth=4;rounded=1;" vertex="1" parent="1">
          <mxGeometry x="-810" y="-1110" width="110" height="110" as="geometry" />
        </mxCell>
        <mxCell id="1AaIwLursv8qgeVIKVuF-3" value="Użytkownik zaczyna gre matematyczna poprzez wcisniecie przycisku START lub naciśnięcie klawisza ENTER" style="rounded=1;whiteSpace=wrap;html=1;fontColor=#FFFFFF;strokeColor=#FFFFFF;fillColor=#000000;" vertex="1" parent="1">
          <mxGeometry x="-570" y="-1115" width="220" height="115" as="geometry" />
        </mxCell>
        <mxCell id="1AaIwLursv8qgeVIKVuF-5" value="Losowane jest pytanie" style="rounded=1;whiteSpace=wrap;html=1;strokeColor=#FFFFFF;fillColor=#000000;fontColor=#FFFFFF;" vertex="1" parent="1">
          <mxGeometry x="-210" y="-1110" width="220" height="115" as="geometry" />
        </mxCell>
        <mxCell id="1AaIwLursv8qgeVIKVuF-9" value="" style="shape=flexArrow;endArrow=classic;html=1;rounded=1;strokeWidth=4;strokeColor=#FFFFFF;entryX=0;entryY=0;entryDx=0;entryDy=0;" edge="1" parent="1" target="1AaIwLursv8qgeVIKVuF-28">
          <mxGeometry width="50" height="50" relative="1" as="geometry">
            <mxPoint x="10" y="-1050" as="sourcePoint" />
            <mxPoint x="130" y="-1050" as="targetPoint" />
          </mxGeometry>
        </mxCell>
        <mxCell id="1AaIwLursv8qgeVIKVuF-11" value="" style="shape=flexArrow;endArrow=classic;html=1;rounded=1;entryX=0;entryY=0.5;entryDx=0;entryDy=0;strokeWidth=4;strokeColor=#ffffff;" edge="1" parent="1" target="1AaIwLursv8qgeVIKVuF-5">
          <mxGeometry width="50" height="50" relative="1" as="geometry">
            <mxPoint x="-350" y="-1053.03" as="sourcePoint" />
            <mxPoint x="-260" y="-1053.03" as="targetPoint" />
          </mxGeometry>
        </mxCell>
        <mxCell id="1AaIwLursv8qgeVIKVuF-14" value="" style="shape=flexArrow;endArrow=classic;html=1;rounded=1;entryX=0.002;entryY=0.57;entryDx=0;entryDy=0;entryPerimeter=0;strokeColor=#ffffff;strokeWidth=4;" edge="1" parent="1" target="1AaIwLursv8qgeVIKVuF-3">
          <mxGeometry width="50" height="50" relative="1" as="geometry">
            <mxPoint x="-700" y="-1050" as="sourcePoint" />
            <mxPoint x="-650" y="-1100" as="targetPoint" />
          </mxGeometry>
        </mxCell>
        <mxCell id="1AaIwLursv8qgeVIKVuF-20" value="sprawdzanie odpowiedzi" style="rhombus;whiteSpace=wrap;html=1;hachureGap=4;fontFamily=Helvetica;strokeWidth=3;fillColor=#f8cecc;strokeColor=#b85450;fillStyle=solid;rounded=1;" vertex="1" parent="1">
          <mxGeometry x="214" y="-657.5" width="110" height="100" as="geometry" />
        </mxCell>
        <mxCell id="1AaIwLursv8qgeVIKVuF-22" value="" style="endArrow=none;html=1;rounded=1;hachureGap=4;fontFamily=Architects Daughter;fontSource=https%3A%2F%2Ffonts.googleapis.com%2Fcss%3Ffamily%3DArchitects%2BDaughter;entryX=0.5;entryY=1;entryDx=0;entryDy=0;strokeColor=#FFFFFF;strokeWidth=4;" edge="1" parent="1">
          <mxGeometry width="50" height="50" relative="1" as="geometry">
            <mxPoint x="269" y="-747.5" as="sourcePoint" />
            <mxPoint x="269" y="-802.5" as="targetPoint" />
          </mxGeometry>
        </mxCell>
        <mxCell id="1AaIwLursv8qgeVIKVuF-28" value="Użytkownik odpowiada na pytanie" style="rounded=1;whiteSpace=wrap;html=1;strokeColor=#FFFFFF;fillColor=#000000;fontColor=#FFFFFF;" vertex="1" parent="1">
          <mxGeometry x="159" y="-920" width="220" height="115" as="geometry" />
        </mxCell>
        <mxCell id="1AaIwLursv8qgeVIKVuF-29" value="" style="shape=flexArrow;endArrow=classic;html=1;rounded=1;strokeWidth=4;strokeColor=#b85450;exitX=0.343;exitY=0.843;exitDx=0;exitDy=0;exitPerimeter=0;fillColor=#f8cecc;" edge="1" parent="1" source="1AaIwLursv8qgeVIKVuF-20">
          <mxGeometry width="50" height="50" relative="1" as="geometry">
            <mxPoint x="269" y="-557.5" as="sourcePoint" />
            <mxPoint x="189" y="-427.5" as="targetPoint" />
            <Array as="points">
              <mxPoint x="189" y="-517.5" />
            </Array>
          </mxGeometry>
        </mxCell>
        <mxCell id="1AaIwLursv8qgeVIKVuF-30" value="" style="shape=flexArrow;endArrow=classic;html=1;rounded=1;strokeWidth=4;strokeColor=#b85450;fillColor=#f8cecc;" edge="1" parent="1" source="1AaIwLursv8qgeVIKVuF-20">
          <mxGeometry width="50" height="50" relative="1" as="geometry">
            <mxPoint x="412" y="-577.5" as="sourcePoint" />
            <mxPoint x="359" y="-427.5" as="targetPoint" />
            <Array as="points">
              <mxPoint x="359" y="-517.5" />
            </Array>
          </mxGeometry>
        </mxCell>
        <mxCell id="1AaIwLursv8qgeVIKVuF-32" value="Użytkownik źle odpowiada na pytanie przed upływem czasu" style="rounded=1;whiteSpace=wrap;html=1;strokeColor=#b85450;fillColor=#f8cecc;" vertex="1" parent="1">
          <mxGeometry x="119" y="-427.5" width="140" height="65" as="geometry" />
        </mxCell>
        <mxCell id="1AaIwLursv8qgeVIKVuF-33" value="Użytkownik dobrze odpowiada na pytanie przed upływem czasu" style="rounded=1;whiteSpace=wrap;html=1;strokeColor=#b85450;fillColor=#f8cecc;" vertex="1" parent="1">
          <mxGeometry x="289" y="-427.5" width="140" height="65" as="geometry" />
        </mxCell>
        <mxCell id="1AaIwLursv8qgeVIKVuF-35" value="" style="shape=flexArrow;endArrow=classic;html=1;rounded=1;strokeWidth=4;strokeColor=#b85450;exitX=0.343;exitY=0.843;exitDx=0;exitDy=0;exitPerimeter=0;fillColor=#f8cecc;" edge="1" parent="1">
          <mxGeometry width="50" height="50" relative="1" as="geometry">
            <mxPoint x="192" y="-362.5" as="sourcePoint" />
            <mxPoint x="129" y="-216.5" as="targetPoint" />
            <Array as="points">
              <mxPoint x="192" y="-297.5" />
            </Array>
          </mxGeometry>
        </mxCell>
        <mxCell id="1AaIwLursv8qgeVIKVuF-36" value="" style="shape=flexArrow;endArrow=classic;html=1;rounded=1;strokeWidth=4;strokeColor=#b85450;exitX=0.343;exitY=0.843;exitDx=0;exitDy=0;exitPerimeter=0;fillColor=#f8cecc;" edge="1" parent="1">
          <mxGeometry width="50" height="50" relative="1" as="geometry">
            <mxPoint x="362" y="-362.5" as="sourcePoint" />
            <mxPoint x="569" y="142.5" as="targetPoint" />
            <Array as="points">
              <mxPoint x="389" y="32.5" />
            </Array>
          </mxGeometry>
        </mxCell>
        <mxCell id="1AaIwLursv8qgeVIKVuF-58" value="" style="edgeStyle=orthogonalEdgeStyle;rounded=0;orthogonalLoop=1;jettySize=auto;html=1;" edge="1" parent="1" source="1AaIwLursv8qgeVIKVuF-37" target="1AaIwLursv8qgeVIKVuF-54">
          <mxGeometry relative="1" as="geometry" />
        </mxCell>
        <mxCell id="1AaIwLursv8qgeVIKVuF-37" value="Odpowiedź zaliczana jest jako niepoprawna" style="rounded=1;whiteSpace=wrap;html=1;strokeColor=#b85450;fillColor=#f8cecc;" vertex="1" parent="1">
          <mxGeometry x="-10" y="-220" width="140" height="65" as="geometry" />
        </mxCell>
        <mxCell id="1AaIwLursv8qgeVIKVuF-38" value="Odpowiedź zaliczana jest jako poprawna" style="rounded=1;whiteSpace=wrap;html=1;strokeColor=#b85450;fillColor=#f8cecc;" vertex="1" parent="1">
          <mxGeometry x="569" y="142.5" width="140" height="65" as="geometry" />
        </mxCell>
        <mxCell id="1AaIwLursv8qgeVIKVuF-39" value="" style="endArrow=classic;html=1;rounded=1;hachureGap=4;fontFamily=Architects Daughter;fontSource=https%3A%2F%2Ffonts.googleapis.com%2Fcss%3Ffamily%3DArchitects%2BDaughter;strokeWidth=4;fillColor=#f8cecc;strokeColor=#b85450;" edge="1" parent="1">
          <mxGeometry width="50" height="50" relative="1" as="geometry">
            <mxPoint x="268.94" y="-557.5" as="sourcePoint" />
            <mxPoint x="268.47" y="-140" as="targetPoint" />
          </mxGeometry>
        </mxCell>
        <mxCell id="1AaIwLursv8qgeVIKVuF-40" value="Rusza timer ustawiony na 10 sekund" style="rounded=1;whiteSpace=wrap;html=1;strokeColor=#FFFFFF;fillColor=#000000;fontColor=#FFFFFF;" vertex="1" parent="1">
          <mxGeometry x="204" y="-757.5" width="120" height="50" as="geometry" />
        </mxCell>
        <mxCell id="1AaIwLursv8qgeVIKVuF-41" value="" style="endArrow=none;html=1;rounded=1;hachureGap=4;fontFamily=Architects Daughter;fontSource=https%3A%2F%2Ffonts.googleapis.com%2Fcss%3Ffamily%3DArchitects%2BDaughter;entryX=0.5;entryY=1;entryDx=0;entryDy=0;strokeColor=#FFFFFF;strokeWidth=4;" edge="1" parent="1">
          <mxGeometry width="50" height="50" relative="1" as="geometry">
            <mxPoint x="268.47" y="-652.5" as="sourcePoint" />
            <mxPoint x="268.47" y="-707.5" as="targetPoint" />
          </mxGeometry>
        </mxCell>
        <mxCell id="1AaIwLursv8qgeVIKVuF-43" value="Upływa czas na odpowiedź (10 sekund), a użytkownik nie zaznaczył jeszcze odpowiedzi" style="rounded=1;whiteSpace=wrap;html=1;strokeColor=#b85450;fillColor=#f8cecc;" vertex="1" parent="1">
          <mxGeometry x="199" y="-137.5" width="140" height="65" as="geometry" />
        </mxCell>
        <mxCell id="1AaIwLursv8qgeVIKVuF-44" value="" style="shape=flexArrow;endArrow=classic;html=1;rounded=1;strokeWidth=4;strokeColor=#b85450;exitX=0.343;exitY=0.843;exitDx=0;exitDy=0;exitPerimeter=0;fillColor=#f8cecc;" edge="1" parent="1">
          <mxGeometry width="50" height="50" relative="1" as="geometry">
            <mxPoint x="267" y="-72.5" as="sourcePoint" />
            <mxPoint x="267" y="12.5" as="targetPoint" />
            <Array as="points">
              <mxPoint x="267" y="-7.5" />
            </Array>
          </mxGeometry>
        </mxCell>
        <mxCell id="1AaIwLursv8qgeVIKVuF-46" value="Odpowiedź zaliczana jest jako niepoprawna" style="rounded=1;whiteSpace=wrap;html=1;strokeColor=#b85450;fillColor=#f8cecc;" vertex="1" parent="1">
          <mxGeometry x="199" y="12.5" width="140" height="65" as="geometry" />
        </mxCell>
        <mxCell id="1AaIwLursv8qgeVIKVuF-52" value="" style="html=1;shadow=0;dashed=0;align=center;verticalAlign=middle;shape=mxgraph.arrows2.bendArrow;dy=15;dx=38;notch=0;arrowHead=55;rounded=1;direction=north;strokeWidth=4;fillColor=#f5f5f5;fontColor=#333333;strokeColor=#666666;" vertex="1" parent="1">
          <mxGeometry x="-130" y="-990" width="700" height="1180" as="geometry" />
        </mxCell>
        <mxCell id="1AaIwLursv8qgeVIKVuF-53" value="" style="html=1;shadow=0;dashed=0;align=center;verticalAlign=middle;shape=mxgraph.arrows2.bendArrow;dy=15;dx=38;notch=0;arrowHead=55;rounded=1;direction=north;strokeWidth=4;fillColor=#f5f5f5;fontColor=#333333;strokeColor=#666666;" vertex="1" parent="1">
          <mxGeometry x="-130" y="-990" width="330" height="1050" as="geometry" />
        </mxCell>
        <mxCell id="1AaIwLursv8qgeVIKVuF-54" value="" style="html=1;shadow=0;dashed=0;align=center;verticalAlign=middle;shape=mxgraph.arrows2.bendArrow;dy=15;dx=38;notch=0;arrowHead=55;rounded=1;direction=north;strokeWidth=4;fillColor=#f5f5f5;fontColor=#333333;strokeColor=#666666;" vertex="1" parent="1">
          <mxGeometry x="-130" y="-990" width="110" height="820" as="geometry" />
        </mxCell>
        <mxCell id="1AaIwLursv8qgeVIKVuF-60" value="" style="shape=flexArrow;endArrow=classic;html=1;rounded=1;strokeWidth=4;strokeColor=#ffffff;" edge="1" parent="1">
          <mxGeometry width="50" height="50" relative="1" as="geometry">
            <mxPoint x="10" y="-1060" as="sourcePoint" />
            <mxPoint x="520" y="-1060" as="targetPoint" />
          </mxGeometry>
        </mxCell>
        <mxCell id="1AaIwLursv8qgeVIKVuF-61" value="Po odpowiedzeniu na maksymalna liczbe pytań (20 pytań) użytkownik widzi podsumowanie swojej rozgrywki&lt;div&gt;(Obliczony procent poprawnych odpowiedzi w stosunku do niepoprawnych oraz dostaje zasłużoną ocenę&lt;/div&gt;" style="rounded=1;whiteSpace=wrap;html=1;strokeColor=#FFFFFF;fillColor=#000000;fontColor=#FFFFFF;" vertex="1" parent="1">
          <mxGeometry x="520" y="-1115" width="220" height="115" as="geometry" />
        </mxCell>
      </root>
    </mxGraphModel>
  </diagram>
</mxfile>
